<svg xmlns="http://www.w3.org/2000/svg" version="1.1" xmlns:xlink="http://www.w3.org/1999/xlink" xmlns:svgjs="http://svgjs.dev/svgjs" width="1000" height="520" viewBox="0 0 1000 520"><g transform="matrix(1,0,0,1,-0.6060605894091964,-0.3679120343025488)"><svg viewBox="0 0 396 206" data-background-color="#ffffff" preserveAspectRatio="xMidYMid meet" height="520" width="1000" xmlns="http://www.w3.org/2000/svg" xmlns:xlink="http://www.w3.org/1999/xlink"><g id="tight-bounds" transform="matrix(1,0,0,1,0.2400000065940162,0.14574976743523393)"><svg viewBox="0 0 395.52 205.7085000609802" height="205.7085000609802" width="395.52"><g><svg viewBox="0 0 395.52 205.7085000609802" height="205.7085000609802" width="395.52"><g transform="matrix(1,0,0,1,0,171.46642934063783)"><svg viewBox="0 0 395.52 34.24207072034238" height="34.24207072034238" width="395.52"><g><svg viewBox="0 0 395.52 34.24207072034238" height="34.24207072034238" width="395.52"><g><rect width="75.54432" height="1.8006283095185347" y="28.560973855860812" fill="#111111" data-fill-palette-color="tertiary"></rect><rect width="75.54432" height="1.8006283095185347" y="28.560973855860812" x="319.97568" fill="#111111" data-fill-palette-color="tertiary"></rect></g><g><svg viewBox="0 0 395.52 19.966818626765487" height="19.966818626765487" width="395.52"><g transform="matrix(1,0,0,1,0,0)"><svg width="395.52" viewBox="1.600000023841858 -35.5 715.0400390625 36.099998474121094" height="19.966818626765487" data-palette-color="#111111"><path d="M9.3 0L9.3-2.7 13.95-2.7 13.95-31.95 6.15-31.95 6.15-26.1 1.6-26.1 1.6-34.9 32.25-34.9 32.25-26.1 27.7-26.1 27.7-31.95 19.9-31.95 19.9-2.7 24.55-2.7 24.55 0 9.3 0ZM36.3 0L36.3-2.7 39.95-2.7 39.95-32.2 36.3-32.2 36.3-34.9 63-34.9 63-26.1 58.45-26.1 58.45-31.95 45.9-31.95 45.9-19.55 54.4-19.55 54.4-23.1 57.7-23.1 57.7-13.05 54.4-13.05 54.4-16.6 45.9-16.6 45.9-2.95 58.95-2.95 58.95-9.45 63.5-9.45 63.5 0 36.3 0ZM68.75 0L68.75-2.7 72.4-2.7 72.4-32.2 68.75-32.2 68.75-34.9 79.35-34.9 96.2-8.25 96.45-8.25 96.45-32.2 92.8-32.2 92.8-34.9 103.35-34.9 103.35-32.2 99.7-32.2 99.7 0 94.65 0 75.9-29.65 75.65-29.65 75.65-2.7 79.3-2.7 79.3 0 68.75 0ZM105.59 0L105.59-2.7 108.19-2.7 119.29-34.9 124.99-34.9 136.09-2.7 138.69-2.7 138.69 0 125.64 0 125.64-2.7 129.94-2.7 127.14-11.05 114.49-11.05 111.69-2.7 115.99-2.7 115.99 0 105.59 0ZM120.69-30.2L115.29-13.9 126.34-13.9 120.94-30.2 120.69-30.2ZM155.64 0.6L155.64 0.6Q152.14 0.6 149.37-0.73 146.59-2.05 144.64-4.42 142.69-6.8 141.67-10.13 140.64-13.45 140.64-17.45L140.64-17.45Q140.64-21.8 141.77-25.18 142.89-28.55 144.84-30.85 146.79-33.15 149.47-34.33 152.14-35.5 155.24-35.5L155.24-35.5Q158.49-35.5 160.47-34.4 162.44-33.3 163.14-31.85L163.14-31.85 163.39-31.85 163.39-34.9 167.94-34.9 167.94-24.3 163.39-24.3 163.39-26.75Q163.39-29.3 161.42-30.83 159.44-32.35 156.04-32.35L156.04-32.35Q153.79-32.35 152.12-31.58 150.44-30.8 149.37-29.38 148.29-27.95 147.74-25.98 147.19-24 147.19-21.65L147.19-21.65 147.19-13.85Q147.19-8.7 149.77-5.95 152.34-3.2 156.79-3.2L156.79-3.2Q160.19-3.2 162.52-4.98 164.84-6.75 165.94-9.6L165.94-9.6 168.29-8.35Q167.74-6.7 166.67-5.1 165.59-3.5 163.99-2.23 162.39-0.95 160.29-0.18 158.19 0.6 155.64 0.6ZM173.34 0L173.34-2.7 176.99-2.7 176.99-32.2 173.34-32.2 173.34-34.9 186.59-34.9 186.59-32.2 182.94-32.2 182.94-2.7 186.59-2.7 186.59 0 173.34 0ZM207.44-2.5L207.44-2.5Q211.74-2.5 214.24-5.38 216.74-8.25 216.74-13.4L216.74-13.4 216.74-21.5Q216.74-26.65 214.24-29.53 211.74-32.4 207.44-32.4L207.44-32.4Q203.14-32.4 200.64-29.53 198.14-26.65 198.14-21.5L198.14-21.5 198.14-13.4Q198.14-8.25 200.64-5.38 203.14-2.5 207.44-2.5ZM207.44 0.6L207.44 0.6Q203.94 0.6 201.04-0.63 198.14-1.85 196.04-4.17 193.94-6.5 192.76-9.85 191.59-13.2 191.59-17.45L191.59-17.45Q191.59-21.7 192.76-25.05 193.94-28.4 196.04-30.73 198.14-33.05 201.04-34.27 203.94-35.5 207.44-35.5L207.44-35.5Q210.94-35.5 213.84-34.27 216.74-33.05 218.84-30.73 220.94-28.4 222.11-25.05 223.29-21.7 223.29-17.45L223.29-17.45Q223.29-13.2 222.11-9.85 220.94-6.5 218.84-4.17 216.74-1.85 213.84-0.63 210.94 0.6 207.44 0.6ZM245.33 0.6L245.33 0.6Q241.63 0.6 239.03-0.18 236.43-0.95 234.78-2.65 233.13-4.35 232.38-7 231.63-9.65 231.63-13.4L231.63-13.4 231.63-32.2 227.98-32.2 227.98-34.9 241.23-34.9 241.23-32.2 237.58-32.2 237.58-12.9Q237.58-10.3 238.01-8.4 238.43-6.5 239.38-5.23 240.33-3.95 241.91-3.33 243.48-2.7 245.83-2.7L245.83-2.7Q250.53-2.7 252.46-5.18 254.38-7.65 254.38-12.85L254.38-12.85 254.38-32.2 250.73-32.2 250.73-34.9 261.28-34.9 261.28-32.2 257.63-32.2 257.63-13.7Q257.63-10.1 256.96-7.43 256.28-4.75 254.83-2.95 253.38-1.15 251.03-0.28 248.68 0.6 245.33 0.6ZM278.58 0.6L278.58 0.6Q275.48 0.6 273.56-0.45 271.63-1.5 270.93-2.95L270.93-2.95 270.68-2.95 270.68 0 266.13 0 266.13-10.25 270.68-10.25 270.68-8Q270.68-5.4 272.41-3.95 274.13-2.5 277.93-2.5L277.93-2.5Q281.93-2.5 283.73-4.15 285.53-5.8 285.53-8.55L285.53-8.55Q285.53-11 284.18-12.33 282.83-13.65 279.63-14.45L279.63-14.45 277.08-15.05Q274.63-15.6 272.68-16.5 270.73-17.4 269.38-18.7 268.03-20 267.31-21.75 266.58-23.5 266.58-25.85L266.58-25.85Q266.58-28 267.38-29.78 268.18-31.55 269.66-32.83 271.13-34.1 273.23-34.8 275.33-35.5 277.98-35.5L277.98-35.5Q280.98-35.5 282.78-34.5 284.58-33.5 285.28-32.15L285.28-32.15 285.53-32.15 285.53-34.9 290.08-34.9 290.08-24.95 285.53-24.95 285.53-27.2Q285.53-29.75 283.81-31.08 282.08-32.4 278.38-32.4L278.38-32.4Q274.93-32.4 273.26-30.88 271.58-29.35 271.58-27L271.58-27Q271.58-24.5 273.11-23.15 274.63-21.8 278.13-20.95L278.13-20.95 280.48-20.45Q285.33-19.3 287.98-16.82 290.63-14.35 290.63-10.05L290.63-10.05Q290.63-7.75 289.81-5.8 288.98-3.85 287.46-2.43 285.93-1 283.68-0.2 281.43 0.6 278.58 0.6ZM307.63 0L307.63-2.7 311.28-2.7 311.28-32.2 307.63-32.2 307.63-34.9 320.88-34.9 320.88-32.2 317.23-32.2 317.23-2.95 328.63-2.95 328.63-9.45 333.18-9.45 333.18 0 307.63 0ZM337.92 0L337.92-2.7 341.57-2.7 341.57-32.2 337.92-32.2 337.92-34.9 364.62-34.9 364.62-26.1 360.07-26.1 360.07-31.95 347.52-31.95 347.52-19.55 356.02-19.55 356.02-23.1 359.32-23.1 359.32-13.05 356.02-13.05 356.02-16.6 347.52-16.6 347.52-2.95 360.57-2.95 360.57-9.45 365.12-9.45 365.12 0 337.92 0ZM385.42 0.6L385.42 0.6Q382.12 0.6 379.37-0.65 376.62-1.9 374.65-4.23 372.67-6.55 371.57-9.9 370.47-13.25 370.47-17.45L370.47-17.45Q370.47-21.8 371.62-25.18 372.77-28.55 374.82-30.85 376.87-33.15 379.75-34.33 382.62-35.5 386.02-35.5L386.02-35.5Q389.82-35.5 391.95-34.38 394.07-33.25 394.67-31.85L394.67-31.85 394.92-31.85 394.92-34.9 399.47-34.9 399.47-24.3 394.92-24.3 394.92-26.65Q394.92-29.35 392.9-30.85 390.87-32.35 387.02-32.35L387.02-32.35Q381.87-32.35 379.45-29.48 377.02-26.6 377.02-21.3L377.02-21.3 377.02-13.6Q377.02-8.5 379.47-5.65 381.92-2.8 386.12-2.8L386.12-2.8Q389.82-2.8 392-4.65 394.17-6.5 394.17-9.75L394.17-9.75 394.17-14.45 388.47-14.45 388.47-17.15 402.97-17.15 402.97-14.45 400.07-14.45 400.07 0 397.92 0 395.27-4.9 395.02-4.9Q394.67-4 393.9-3.03 393.12-2.05 391.9-1.25 390.67-0.45 389.05 0.08 387.42 0.6 385.42 0.6ZM405.37 0L405.37-2.7 407.97-2.7 419.07-34.9 424.77-34.9 435.87-2.7 438.47-2.7 438.47 0 425.42 0 425.42-2.7 429.72-2.7 426.92-11.05 414.27-11.05 411.47-2.7 415.77-2.7 415.77 0 405.37 0ZM420.47-30.2L415.07-13.9 426.12-13.9 420.72-30.2 420.47-30.2ZM441.67 0L441.67-2.7 445.32-2.7 445.32-32.2 441.67-32.2 441.67-34.9 454.92-34.9 454.92-32.2 451.27-32.2 451.27-2.95 462.67-2.95 462.67-9.45 467.22-9.45 467.22 0 441.67 0ZM496.36 0.6L496.36 0.6Q493.26 0.6 491.34-0.45 489.41-1.5 488.71-2.95L488.71-2.95 488.46-2.95 488.46 0 483.91 0 483.91-10.25 488.46-10.25 488.46-8Q488.46-5.4 490.19-3.95 491.91-2.5 495.71-2.5L495.71-2.5Q499.71-2.5 501.51-4.15 503.31-5.8 503.31-8.55L503.31-8.55Q503.31-11 501.96-12.33 500.61-13.65 497.41-14.45L497.41-14.45 494.86-15.05Q492.41-15.6 490.46-16.5 488.51-17.4 487.16-18.7 485.81-20 485.09-21.75 484.36-23.5 484.36-25.85L484.36-25.85Q484.36-28 485.16-29.78 485.96-31.55 487.44-32.83 488.91-34.1 491.01-34.8 493.11-35.5 495.76-35.5L495.76-35.5Q498.76-35.5 500.56-34.5 502.36-33.5 503.06-32.15L503.06-32.15 503.31-32.15 503.31-34.9 507.86-34.9 507.86-24.95 503.31-24.95 503.31-27.2Q503.31-29.75 501.59-31.08 499.86-32.4 496.16-32.4L496.16-32.4Q492.71-32.4 491.04-30.88 489.36-29.35 489.36-27L489.36-27Q489.36-24.5 490.89-23.15 492.41-21.8 495.91-20.95L495.91-20.95 498.26-20.45Q503.11-19.3 505.76-16.82 508.41-14.35 508.41-10.05L508.41-10.05Q508.41-7.75 507.59-5.8 506.76-3.85 505.24-2.43 503.71-1 501.46-0.2 499.21 0.6 496.36 0.6ZM530.86 0.6L530.86 0.6Q527.16 0.6 524.56-0.18 521.96-0.95 520.31-2.65 518.66-4.35 517.91-7 517.16-9.65 517.16-13.4L517.16-13.4 517.16-32.2 513.51-32.2 513.51-34.9 526.76-34.9 526.76-32.2 523.11-32.2 523.11-12.9Q523.11-10.3 523.53-8.4 523.96-6.5 524.91-5.23 525.86-3.95 527.43-3.33 529.01-2.7 531.36-2.7L531.36-2.7Q536.06-2.7 537.98-5.18 539.91-7.65 539.91-12.85L539.91-12.85 539.91-32.2 536.26-32.2 536.26-34.9 546.81-34.9 546.81-32.2 543.16-32.2 543.16-13.7Q543.16-10.1 542.48-7.43 541.81-4.75 540.36-2.95 538.91-1.15 536.56-0.28 534.21 0.6 530.86 0.6ZM551.31 0L551.31-2.7 554.96-2.7 554.96-32.2 551.31-32.2 551.31-34.9 568.91-34.9Q573.96-34.9 576.58-32.5 579.21-30.1 579.21-25.45L579.21-25.45Q579.21-20.75 576.46-18.2 573.71-15.65 568.66-15.65L568.66-15.65 560.91-15.65 560.91-2.7 565.66-2.7 565.66 0 551.31 0ZM560.91-31.95L560.91-18.6 567.56-18.6Q570.21-18.6 571.63-20.1 573.06-21.6 573.06-24.1L573.06-24.1 573.06-26.45Q573.06-28.95 571.63-30.45 570.21-31.95 567.56-31.95L567.56-31.95 560.91-31.95ZM583.8 0L583.8-2.7 587.45-2.7 587.45-32.2 583.8-32.2 583.8-34.9 601.4-34.9Q606.45-34.9 609.08-32.5 611.7-30.1 611.7-25.45L611.7-25.45Q611.7-20.75 608.95-18.2 606.2-15.65 601.15-15.65L601.15-15.65 593.4-15.65 593.4-2.7 598.15-2.7 598.15 0 583.8 0ZM593.4-31.95L593.4-18.6 600.05-18.6Q602.7-18.6 604.13-20.1 605.55-21.6 605.55-24.1L605.55-24.1 605.55-26.45Q605.55-28.95 604.13-30.45 602.7-31.95 600.05-31.95L600.05-31.95 593.4-31.95ZM632.25-2.5L632.25-2.5Q636.55-2.5 639.05-5.38 641.55-8.25 641.55-13.4L641.55-13.4 641.55-21.5Q641.55-26.65 639.05-29.53 636.55-32.4 632.25-32.4L632.25-32.4Q627.95-32.4 625.45-29.53 622.95-26.65 622.95-21.5L622.95-21.5 622.95-13.4Q622.95-8.25 625.45-5.38 627.95-2.5 632.25-2.5ZM632.25 0.6L632.25 0.6Q628.75 0.6 625.85-0.63 622.95-1.85 620.85-4.17 618.75-6.5 617.58-9.85 616.4-13.2 616.4-17.45L616.4-17.45Q616.4-21.7 617.58-25.05 618.75-28.4 620.85-30.73 622.95-33.05 625.85-34.27 628.75-35.5 632.25-35.5L632.25-35.5Q635.75-35.5 638.65-34.27 641.55-33.05 643.65-30.73 645.75-28.4 646.93-25.05 648.1-21.7 648.1-17.45L648.1-17.45Q648.1-13.2 646.93-9.85 645.75-6.5 643.65-4.17 641.55-1.85 638.65-0.63 635.75 0.6 632.25 0.6ZM653.1 0L653.1-2.7 656.75-2.7 656.75-32.2 653.1-32.2 653.1-34.9 670.85-34.9Q673.15-34.9 675.02-34.35 676.9-33.8 678.22-32.68 679.55-31.55 680.27-29.83 681-28.1 681-25.8L681-25.8Q681-22.2 678.92-19.88 676.85-17.55 673.3-16.85L673.3-16.85 679.4-6Q680.4-4.25 681.57-3.48 682.75-2.7 684.5-2.7L684.5-2.7 684.85-2.7 684.85 0 681 0Q679.4 0 678.27-0.28 677.15-0.55 676.3-1.13 675.45-1.7 674.8-2.58 674.15-3.45 673.55-4.65L673.55-4.65 667.7-15.8 662.7-15.8 662.7-2.7 666.35-2.7 666.35 0 653.1 0ZM662.7-31.95L662.7-18.6 669.35-18.6Q672-18.6 673.42-20.1 674.85-21.6 674.85-24.1L674.85-24.1 674.85-26.45Q674.85-28.95 673.42-30.45 672-31.95 669.35-31.95L669.35-31.95 662.7-31.95ZM693.69 0L693.69-2.7 698.34-2.7 698.34-31.95 690.54-31.95 690.54-26.1 685.99-26.1 685.99-34.9 716.64-34.9 716.64-26.1 712.09-26.1 712.09-31.95 704.29-31.95 704.29-2.7 708.94-2.7 708.94 0 693.69 0Z" opacity="1" transform="matrix(1,0,0,1,0,0)" fill="#111111" class="undefined-text-0" data-fill-palette-color="primary" id="text-0"></path></svg></g></svg></g><g transform="matrix(1,0,0,1,75.54432,24.680505300897778)"><svg viewBox="0 0 244.43135999999998 9.561565419444605" height="9.561565419444605" width="244.43135999999998"><g transform="matrix(1,0,0,1,8,0)"><svg width="228.43135999999998" viewBox="2.450000047683716 -35.5 862.3800048828125 36.099998474121094" height="9.561565419444605" data-palette-color="#89939e"><path d="M2.45 0L2.45-2.7 6.1-2.7 6.1-32.2 2.45-32.2 2.45-34.9 17.8-34.9Q21.3-34.9 24.25-33.77 27.2-32.65 29.35-30.45 31.5-28.25 32.68-25 33.85-21.75 33.85-17.45L33.85-17.45Q33.85-13.15 32.68-9.9 31.5-6.65 29.35-4.45 27.2-2.25 24.25-1.13 21.3 0 17.8 0L17.8 0 2.45 0ZM12.05-31.95L12.05-2.95 16.95-2.95Q22.1-2.95 24.7-5.7 27.3-8.45 27.3-13.75L27.3-13.75 27.3-21.15Q27.3-26.45 24.7-29.2 22.1-31.95 16.95-31.95L16.95-31.95 12.05-31.95ZM55.9 0.6L55.9 0.6Q52.2 0.6 49.6-0.18 47-0.95 45.35-2.65 43.7-4.35 42.95-7 42.2-9.65 42.2-13.4L42.2-13.4 42.2-32.2 38.55-32.2 38.55-34.9 51.8-34.9 51.8-32.2 48.15-32.2 48.15-12.9Q48.15-10.3 48.57-8.4 49-6.5 49.95-5.23 50.9-3.95 52.47-3.33 54.05-2.7 56.4-2.7L56.4-2.7Q61.1-2.7 63.02-5.18 64.95-7.65 64.95-12.85L64.95-12.85 64.95-32.2 61.3-32.2 61.3-34.9 71.85-34.9 71.85-32.2 68.2-32.2 68.2-13.7Q68.2-10.1 67.52-7.43 66.85-4.75 65.4-2.95 63.95-1.15 61.6-0.28 59.25 0.6 55.9 0.6ZM76.35 0L76.35-2.7 80-2.7 80-32.2 76.35-32.2 76.35-34.9 103.05-34.9 103.05-26.1 98.5-26.1 98.5-31.95 85.95-31.95 85.95-19.55 94.45-19.55 94.45-23.1 97.75-23.1 97.75-13.05 94.45-13.05 94.45-16.6 85.95-16.6 85.95-2.95 99-2.95 99-9.45 103.55-9.45 103.55 0 76.35 0ZM120.39 0L120.39-2.7 124.04-2.7 124.04-32.2 120.39-32.2 120.39-34.9 135.74-34.9Q139.24-34.9 142.19-33.77 145.14-32.65 147.29-30.45 149.44-28.25 150.62-25 151.79-21.75 151.79-17.45L151.79-17.45Q151.79-13.15 150.62-9.9 149.44-6.65 147.29-4.45 145.14-2.25 142.19-1.13 139.24 0 135.74 0L135.74 0 120.39 0ZM129.99-31.95L129.99-2.95 134.89-2.95Q140.04-2.95 142.64-5.7 145.24-8.45 145.24-13.75L145.24-13.75 145.24-21.15Q145.24-26.45 142.64-29.2 140.04-31.95 134.89-31.95L134.89-31.95 129.99-31.95ZM156.79 0L156.79-2.7 160.44-2.7 160.44-32.2 156.79-32.2 156.79-34.9 170.04-34.9 170.04-32.2 166.39-32.2 166.39-2.7 170.04-2.7 170.04 0 156.79 0ZM174.94 0L174.94-2.7 178.59-2.7 178.59-32.2 174.94-32.2 174.94-34.9 188.19-34.9 188.19-32.2 184.54-32.2 184.54-2.95 195.94-2.95 195.94-9.45 200.49-9.45 200.49 0 174.94 0ZM205.23 0L205.23-2.7 208.88-2.7 208.88-32.2 205.23-32.2 205.23-34.9 218.48-34.9 218.48-32.2 214.83-32.2 214.83-2.7 218.48-2.7 218.48 0 205.23 0ZM238.43 0.6L238.43 0.6Q235.13 0.6 232.38-0.65 229.63-1.9 227.66-4.23 225.68-6.55 224.58-9.9 223.48-13.25 223.48-17.45L223.48-17.45Q223.48-21.8 224.63-25.18 225.78-28.55 227.83-30.85 229.88-33.15 232.76-34.33 235.63-35.5 239.03-35.5L239.03-35.5Q242.83-35.5 244.96-34.38 247.08-33.25 247.68-31.85L247.68-31.85 247.93-31.85 247.93-34.9 252.48-34.9 252.48-24.3 247.93-24.3 247.93-26.65Q247.93-29.35 245.91-30.85 243.88-32.35 240.03-32.35L240.03-32.35Q234.88-32.35 232.46-29.48 230.03-26.6 230.03-21.3L230.03-21.3 230.03-13.6Q230.03-8.5 232.48-5.65 234.93-2.8 239.13-2.8L239.13-2.8Q242.83-2.8 245.01-4.65 247.18-6.5 247.18-9.75L247.18-9.75 247.18-14.45 241.48-14.45 241.48-17.15 255.98-17.15 255.98-14.45 253.08-14.45 253.08 0 250.93 0 248.28-4.9 248.03-4.9Q247.68-4 246.91-3.03 246.13-2.05 244.91-1.25 243.68-0.45 242.06 0.08 240.43 0.6 238.43 0.6ZM260.58 0L260.58-2.7 264.23-2.7 264.23-32.2 260.58-32.2 260.58-34.9 287.28-34.9 287.28-26.1 282.73-26.1 282.73-31.95 270.18-31.95 270.18-19.55 278.68-19.55 278.68-23.1 281.98-23.1 281.98-13.05 278.68-13.05 278.68-16.6 270.18-16.6 270.18-2.95 283.23-2.95 283.23-9.45 287.78-9.45 287.78 0 260.58 0ZM293.03 0L293.03-2.7 296.68-2.7 296.68-32.2 293.03-32.2 293.03-34.9 303.63-34.9 320.48-8.25 320.73-8.25 320.73-32.2 317.08-32.2 317.08-34.9 327.63-34.9 327.63-32.2 323.98-32.2 323.98 0 318.93 0 300.18-29.65 299.93-29.65 299.93-2.7 303.58-2.7 303.58 0 293.03 0ZM347.32 0.6L347.32 0.6Q343.82 0.6 341.05-0.73 338.27-2.05 336.32-4.42 334.37-6.8 333.35-10.13 332.32-13.45 332.32-17.45L332.32-17.45Q332.32-21.8 333.45-25.18 334.57-28.55 336.52-30.85 338.47-33.15 341.15-34.33 343.82-35.5 346.92-35.5L346.92-35.5Q350.17-35.5 352.15-34.4 354.12-33.3 354.82-31.85L354.82-31.85 355.07-31.85 355.07-34.9 359.62-34.9 359.62-24.3 355.07-24.3 355.07-26.75Q355.07-29.3 353.1-30.83 351.12-32.35 347.72-32.35L347.72-32.35Q345.47-32.35 343.8-31.58 342.12-30.8 341.05-29.38 339.97-27.95 339.42-25.98 338.87-24 338.87-21.65L338.87-21.65 338.87-13.85Q338.87-8.7 341.45-5.95 344.02-3.2 348.47-3.2L348.47-3.2Q351.87-3.2 354.2-4.98 356.52-6.75 357.62-9.6L357.62-9.6 359.97-8.35Q359.42-6.7 358.35-5.1 357.27-3.5 355.67-2.23 354.07-0.95 351.97-0.18 349.87 0.6 347.32 0.6ZM365.02 0L365.02-2.7 368.67-2.7 368.67-32.2 365.02-32.2 365.02-34.9 391.72-34.9 391.72-26.1 387.17-26.1 387.17-31.95 374.62-31.95 374.62-19.55 383.12-19.55 383.12-23.1 386.42-23.1 386.42-13.05 383.12-13.05 383.12-16.6 374.62-16.6 374.62-2.95 387.67-2.95 387.67-9.45 392.22-9.45 392.22 0 365.02 0ZM409.07 0L409.07-2.7 412.72-2.7 412.72-32.2 409.07-32.2 409.07-34.9 435.77-34.9 435.77-26.1 431.22-26.1 431.22-31.95 418.67-31.95 418.67-18.8 427.17-18.8 427.17-22.35 430.47-22.35 430.47-12.3 427.17-12.3 427.17-15.85 418.67-15.85 418.67-2.7 423.32-2.7 423.32 0 409.07 0ZM455.76-2.5L455.76-2.5Q460.06-2.5 462.56-5.38 465.06-8.25 465.06-13.4L465.06-13.4 465.06-21.5Q465.06-26.65 462.56-29.53 460.06-32.4 455.76-32.4L455.76-32.4Q451.46-32.4 448.96-29.53 446.46-26.65 446.46-21.5L446.46-21.5 446.46-13.4Q446.46-8.25 448.96-5.38 451.46-2.5 455.76-2.5ZM455.76 0.6L455.76 0.6Q452.26 0.6 449.36-0.63 446.46-1.85 444.36-4.17 442.26-6.5 441.09-9.85 439.91-13.2 439.91-17.45L439.91-17.45Q439.91-21.7 441.09-25.05 442.26-28.4 444.36-30.73 446.46-33.05 449.36-34.27 452.26-35.5 455.76-35.5L455.76-35.5Q459.26-35.5 462.16-34.27 465.06-33.05 467.16-30.73 469.26-28.4 470.44-25.05 471.61-21.7 471.61-17.45L471.61-17.45Q471.61-13.2 470.44-9.85 469.26-6.5 467.16-4.17 465.06-1.85 462.16-0.63 459.26 0.6 455.76 0.6ZM476.61 0L476.61-2.7 480.26-2.7 480.26-32.2 476.61-32.2 476.61-34.9 494.36-34.9Q496.66-34.9 498.54-34.35 500.41-33.8 501.74-32.68 503.06-31.55 503.79-29.83 504.51-28.1 504.51-25.8L504.51-25.8Q504.51-22.2 502.44-19.88 500.36-17.55 496.81-16.85L496.81-16.85 502.91-6Q503.91-4.25 505.09-3.48 506.26-2.7 508.01-2.7L508.01-2.7 508.36-2.7 508.36 0 504.51 0Q502.91 0 501.79-0.28 500.66-0.55 499.81-1.13 498.96-1.7 498.31-2.58 497.66-3.45 497.06-4.65L497.06-4.65 491.21-15.8 486.21-15.8 486.21-2.7 489.86-2.7 489.86 0 476.61 0ZM486.21-31.95L486.21-18.6 492.86-18.6Q495.51-18.6 496.94-20.1 498.36-21.6 498.36-24.1L498.36-24.1 498.36-26.45Q498.36-28.95 496.94-30.45 495.51-31.95 492.86-31.95L492.86-31.95 486.21-31.95ZM523.16 0L523.16-2.7 526.81-2.7 526.81-32.2 523.16-32.2 523.16-34.9 538.5-34.9Q542-34.9 544.96-33.77 547.91-32.65 550.06-30.45 552.21-28.25 553.38-25 554.56-21.75 554.56-17.45L554.56-17.45Q554.56-13.15 553.38-9.9 552.21-6.65 550.06-4.45 547.91-2.25 544.96-1.13 542 0 538.5 0L538.5 0 523.16 0ZM532.75-31.95L532.75-2.95 537.66-2.95Q542.81-2.95 545.41-5.7 548-8.45 548-13.75L548-13.75 548-21.15Q548-26.45 545.41-29.2 542.81-31.95 537.66-31.95L537.66-31.95 532.75-31.95ZM576.6 0.6L576.6 0.6Q572.9 0.6 570.3-0.18 567.7-0.95 566.05-2.65 564.4-4.35 563.65-7 562.9-9.65 562.9-13.4L562.9-13.4 562.9-32.2 559.25-32.2 559.25-34.9 572.5-34.9 572.5-32.2 568.85-32.2 568.85-12.9Q568.85-10.3 569.28-8.4 569.7-6.5 570.65-5.23 571.6-3.95 573.18-3.33 574.75-2.7 577.1-2.7L577.1-2.7Q581.8-2.7 583.73-5.18 585.65-7.65 585.65-12.85L585.65-12.85 585.65-32.2 582-32.2 582-34.9 592.55-34.9 592.55-32.2 588.9-32.2 588.9-13.7Q588.9-10.1 588.23-7.43 587.55-4.75 586.1-2.95 584.65-1.15 582.3-0.28 579.95 0.6 576.6 0.6ZM597.05 0L597.05-2.7 600.7-2.7 600.7-32.2 597.05-32.2 597.05-34.9 623.75-34.9 623.75-26.1 619.2-26.1 619.2-31.95 606.65-31.95 606.65-19.55 615.15-19.55 615.15-23.1 618.45-23.1 618.45-13.05 615.15-13.05 615.15-16.6 606.65-16.6 606.65-2.95 619.7-2.95 619.7-9.45 624.25-9.45 624.25 0 597.05 0ZM641.09 0L641.09-2.7 644.74-2.7 644.74-32.2 641.09-32.2 641.09-34.9 658.69-34.9Q663.74-34.9 666.37-32.5 668.99-30.1 668.99-25.45L668.99-25.45Q668.99-20.75 666.24-18.2 663.49-15.65 658.44-15.65L658.44-15.65 650.69-15.65 650.69-2.7 655.44-2.7 655.44 0 641.09 0ZM650.69-31.95L650.69-18.6 657.34-18.6Q659.99-18.6 661.42-20.1 662.84-21.6 662.84-24.1L662.84-24.1 662.84-26.45Q662.84-28.95 661.42-30.45 659.99-31.95 657.34-31.95L657.34-31.95 650.69-31.95ZM673.59 0L673.59-2.7 677.24-2.7 677.24-32.2 673.59-32.2 673.59-34.9 691.34-34.9Q693.64-34.9 695.52-34.35 697.39-33.8 698.72-32.68 700.04-31.55 700.77-29.83 701.49-28.1 701.49-25.8L701.49-25.8Q701.49-22.2 699.42-19.88 697.34-17.55 693.79-16.85L693.79-16.85 699.89-6Q700.89-4.25 702.07-3.48 703.24-2.7 704.99-2.7L704.99-2.7 705.34-2.7 705.34 0 701.49 0Q699.89 0 698.77-0.28 697.64-0.55 696.79-1.13 695.94-1.7 695.29-2.58 694.64-3.45 694.04-4.65L694.04-4.65 688.19-15.8 683.19-15.8 683.19-2.7 686.84-2.7 686.84 0 673.59 0ZM683.19-31.95L683.19-18.6 689.84-18.6Q692.49-18.6 693.92-20.1 695.34-21.6 695.34-24.1L695.34-24.1 695.34-26.45Q695.34-28.95 693.92-30.45 692.49-31.95 689.84-31.95L689.84-31.95 683.19-31.95ZM723.69-2.5L723.69-2.5Q727.99-2.5 730.49-5.38 732.99-8.25 732.99-13.4L732.99-13.4 732.99-21.5Q732.99-26.65 730.49-29.53 727.99-32.4 723.69-32.4L723.69-32.4Q719.39-32.4 716.89-29.53 714.39-26.65 714.39-21.5L714.39-21.5 714.39-13.4Q714.39-8.25 716.89-5.38 719.39-2.5 723.69-2.5ZM723.69 0.6L723.69 0.6Q720.19 0.6 717.29-0.63 714.39-1.85 712.29-4.17 710.19-6.5 709.01-9.85 707.84-13.2 707.84-17.45L707.84-17.45Q707.84-21.7 709.01-25.05 710.19-28.4 712.29-30.73 714.39-33.05 717.29-34.27 720.19-35.5 723.69-35.5L723.69-35.5Q727.19-35.5 730.09-34.27 732.99-33.05 735.09-30.73 737.19-28.4 738.36-25.05 739.54-21.7 739.54-17.45L739.54-17.45Q739.54-13.2 738.36-9.85 737.19-6.5 735.09-4.17 732.99-1.85 730.09-0.63 727.19 0.6 723.69 0.6ZM759.94 0.6L759.94 0.6Q756.44 0.6 753.66-0.73 750.89-2.05 748.94-4.42 746.99-6.8 745.96-10.13 744.94-13.45 744.94-17.45L744.94-17.45Q744.94-21.8 746.06-25.18 747.19-28.55 749.14-30.85 751.09-33.15 753.76-34.33 756.44-35.5 759.54-35.5L759.54-35.5Q762.79-35.5 764.76-34.4 766.74-33.3 767.44-31.85L767.44-31.85 767.69-31.85 767.69-34.9 772.24-34.9 772.24-24.3 767.69-24.3 767.69-26.75Q767.69-29.3 765.71-30.83 763.74-32.35 760.34-32.35L760.34-32.35Q758.09-32.35 756.41-31.58 754.74-30.8 753.66-29.38 752.59-27.95 752.04-25.98 751.49-24 751.49-21.65L751.49-21.65 751.49-13.85Q751.49-8.7 754.06-5.95 756.64-3.2 761.09-3.2L761.09-3.2Q764.49-3.2 766.81-4.98 769.14-6.75 770.24-9.6L770.24-9.6 772.59-8.35Q772.04-6.7 770.96-5.1 769.89-3.5 768.29-2.23 766.69-0.95 764.59-0.18 762.49 0.6 759.94 0.6ZM777.63 0L777.63-2.7 781.28-2.7 781.28-32.2 777.63-32.2 777.63-34.9 804.33-34.9 804.33-26.1 799.78-26.1 799.78-31.95 787.23-31.95 787.23-19.55 795.73-19.55 795.73-23.1 799.03-23.1 799.03-13.05 795.73-13.05 795.73-16.6 787.23-16.6 787.23-2.95 800.28-2.95 800.28-9.45 804.83-9.45 804.83 0 777.63 0ZM822.88 0.6L822.88 0.6Q819.78 0.6 817.86-0.45 815.93-1.5 815.23-2.95L815.23-2.95 814.98-2.95 814.98 0 810.43 0 810.43-10.25 814.98-10.25 814.98-8Q814.98-5.4 816.71-3.95 818.43-2.5 822.23-2.5L822.23-2.5Q826.23-2.5 828.03-4.15 829.83-5.8 829.83-8.55L829.83-8.55Q829.83-11 828.48-12.33 827.13-13.65 823.93-14.45L823.93-14.45 821.38-15.05Q818.93-15.6 816.98-16.5 815.03-17.4 813.68-18.7 812.33-20 811.61-21.75 810.88-23.5 810.88-25.85L810.88-25.85Q810.88-28 811.68-29.78 812.48-31.55 813.96-32.83 815.43-34.1 817.53-34.8 819.63-35.5 822.28-35.5L822.28-35.5Q825.28-35.5 827.08-34.5 828.88-33.5 829.58-32.15L829.58-32.15 829.83-32.15 829.83-34.9 834.38-34.9 834.38-24.95 829.83-24.95 829.83-27.2Q829.83-29.75 828.11-31.08 826.38-32.4 822.68-32.4L822.68-32.4Q819.23-32.4 817.56-30.88 815.88-29.35 815.88-27L815.88-27Q815.88-24.5 817.41-23.15 818.93-21.8 822.43-20.95L822.43-20.95 824.78-20.45Q829.63-19.3 832.28-16.82 834.93-14.35 834.93-10.05L834.93-10.05Q834.93-7.75 834.11-5.8 833.28-3.85 831.76-2.43 830.23-1 827.98-0.2 825.73 0.6 822.88 0.6ZM852.78 0.6L852.78 0.6Q849.68 0.6 847.75-0.45 845.83-1.5 845.13-2.95L845.13-2.95 844.88-2.95 844.88 0 840.33 0 840.33-10.25 844.88-10.25 844.88-8Q844.88-5.4 846.6-3.95 848.33-2.5 852.13-2.5L852.13-2.5Q856.13-2.5 857.93-4.15 859.73-5.8 859.73-8.55L859.73-8.55Q859.73-11 858.38-12.33 857.03-13.65 853.83-14.45L853.83-14.45 851.28-15.05Q848.83-15.6 846.88-16.5 844.93-17.4 843.58-18.7 842.23-20 841.5-21.75 840.78-23.5 840.78-25.85L840.78-25.85Q840.78-28 841.58-29.78 842.38-31.55 843.85-32.83 845.33-34.1 847.43-34.8 849.53-35.5 852.18-35.5L852.18-35.5Q855.18-35.5 856.98-34.5 858.78-33.5 859.48-32.15L859.48-32.15 859.73-32.15 859.73-34.9 864.28-34.9 864.28-24.95 859.73-24.95 859.73-27.2Q859.73-29.75 858-31.08 856.28-32.4 852.58-32.4L852.58-32.4Q849.13-32.4 847.45-30.88 845.78-29.35 845.78-27L845.78-27Q845.78-24.5 847.3-23.15 848.83-21.8 852.33-20.95L852.33-20.95 854.68-20.45Q859.53-19.3 862.18-16.82 864.83-14.35 864.83-10.05L864.83-10.05Q864.83-7.75 864-5.8 863.18-3.85 861.65-2.43 860.13-1 857.88-0.2 855.63 0.6 852.78 0.6Z" opacity="1" transform="matrix(1,0,0,1,0,0)" fill="#89939e" class="undefined-text-1" data-fill-palette-color="secondary" id="text-1"></path></svg></g></svg></g></svg></g></svg></g><g transform="matrix(1,0,0,1,116.74047200381337,0)"><svg viewBox="0 0 162.03905599237325 162.03905599237325" height="162.03905599237325" width="162.03905599237325"><g><svg></svg></g><g id="icon-0"><svg viewBox="0 0 162.03905599237325 162.03905599237325" height="162.03905599237325" width="162.03905599237325"><g><path d="M0 81.02c0-44.746 36.274-81.02 81.02-81.02 44.746 0 81.02 36.274 81.019 81.02 0 44.746-36.274 81.02-81.019 81.019-44.746 0-81.02-36.274-81.02-81.019zM81.02 160.238c43.751 0 79.219-35.468 79.218-79.218 0-43.751-35.468-79.219-79.218-79.219-43.751 0-79.219 35.468-79.219 79.219 0 43.751 35.468 79.219 79.219 79.218z" data-fill-palette-color="tertiary" fill="#111111" stroke="transparent"></path></g><g transform="matrix(1,0,0,1,31.342217976479645,43.87418083697623)"><svg viewBox="0 0 99.35462003941396 74.29069431842079" height="74.29069431842079" width="99.35462003941396"><g><svg xmlns="http://www.w3.org/2000/svg" xmlns:xlink="http://www.w3.org/1999/xlink" version="1.1" x="0" y="0" viewBox="0.9194833636283875 12.624999046325684 98.41351318359375 73.58699798583984" enable-background="new 0 0 100 100" xml:space="preserve" height="74.29069431842079" width="99.35462003941396" class="icon-s-0" data-fill-palette-color="accent" id="s-0"><circle cx="64.942" cy="23.133" r="11" fill="#107aee" data-fill-palette-color="accent"></circle><path d="M46.439 75.021l-8.096-21.596-0.056-0.118c-0.201-0.407-0.623-0.676-1.083-0.676H25.56v-3.094l-0.019-0.297H21.87v3.392H10.226c-0.443 0-0.848 0.246-1.058 0.626L0.962 75.096c-0.044 0.137-0.057 0.287-0.024 0.562 0.022 0.145 0.074 0.284 0.134 0.366l0.075 0.152c0.093 0.116 0.187 0.207 0.242 0.233 0.143 0.168 3.526 4.089 8.836 4.089 5.211 0 8.69-3.917 8.79-4.044 0.108-0.079 0.2-0.17 0.288-0.28l0.065-0.111c0.073-0.138 0.121-0.265 0.158-0.497 0.02-0.152 0.009-0.311-0.063-0.545l-7.474-19.947h9.881v27.462h-6.634v3.676h16.789v-3.676h-6.487l0.021-27.462h9.883l-7.504 20.021c-0.043 0.133-0.058 0.283-0.019 0.566 0.022 0.141 0.072 0.275 0.201 0.503 0.08 0.107 0.174 0.202 0.248 0.249 0.146 0.168 3.622 4.085 8.837 4.085 5.312 0 8.693-3.921 8.782-4.04 0.117-0.083 0.215-0.179 0.229-0.228l0.122-0.151c0.083-0.15 0.133-0.283 0.174-0.532C46.522 75.375 46.51 75.229 46.439 75.021zM43.541 74.228H30.867l6.337-16.896L43.541 74.228zM10.226 57.331l6.337 16.896H3.893L10.226 57.331z" fill="#107aee" data-fill-palette-color="accent"></path><path d="M92.093 59.858v-8.348c0-7.348-5.441-14.547-14.038-14.547h-4.262l-6.577 14.621V36.673h-4.548v14.764l-6.511-14.474L16.071 36.91c-6.652-0.021-6.731 9.635-0.08 9.635h33.764l0.012 39.667h20.52v-0.017h29.046V59.858H92.093zM80.722 52.216h2.72v7.643h-2.724L80.722 52.216zM71.273 62.548h12.168v10.516H71.273V62.548zM96.643 83.507H71.273v-7.754h12.168v0.527c0 6.651 8.67 6.651 8.651 0v-0.527h4.55V83.507zM96.643 73.063h-4.55V62.548h4.55V73.063z" fill="#107aee" data-fill-palette-color="accent"></path></svg></g></svg></g></svg></g></svg></g><g></g></svg></g><defs></defs></svg><rect width="395.52" height="205.7085000609802" fill="none" stroke="none" visibility="hidden"></rect></g></svg></g></svg>